<svg width="25" height="24" viewBox="0 0 25 24" fill="none" xmlns="http://www.w3.org/2000/svg">
<rect width="25" height="24" fill="#1E1E1E"/>
<g clip-path="url(#clip0_0_1)">
<rect width="2262" height="139" transform="translate(-1292 -64)" fill="#222222"/>
<path d="M-8.79993 1.8C-8.79993 -4.16467 -3.9646 -9 2.00007 -9H226.64C232.605 -9 237.44 -4.16468 237.44 1.8V29.88H-8.79993V1.8Z" fill="#3C3C3C"/>
<path d="M12.6667 7V21M12.6667 7C12.6667 5.93913 12.2453 4.92172 11.4951 4.17157C10.745 3.42143 9.72755 3 8.66669 3H3.66669C3.40147 3 3.14712 3.10536 2.95958 3.29289C2.77204 3.48043 2.66669 3.73478 2.66669 4V17C2.66669 17.2652 2.77204 17.5196 2.95958 17.7071C3.14712 17.8946 3.40147 18 3.66669 18H9.66669C10.4623 18 11.2254 18.3161 11.788 18.8787C12.3506 19.4413 12.6667 20.2044 12.6667 21M12.6667 7C12.6667 5.93913 13.0881 4.92172 13.8383 4.17157C14.5884 3.42143 15.6058 3 16.6667 3H21.6667C21.9319 3 22.1863 3.10536 22.3738 3.29289C22.5613 3.48043 22.6667 3.73478 22.6667 4V17C22.6667 17.2652 22.5613 17.5196 22.3738 17.7071C22.1863 17.8946 21.9319 18 21.6667 18H15.6667C14.871 18 14.108 18.3161 13.5454 18.8787C12.9828 19.4413 12.6667 20.2044 12.6667 21" stroke="white" stroke-width="2" stroke-linecap="round" stroke-linejoin="round"/>
</g>
<defs>
<clipPath id="clip0_0_1">
<rect width="2262" height="139" fill="white" transform="translate(-1292 -64)"/>
</clipPath>
</defs>
</svg>
